<!DOCTYPE svg  PUBLIC '-//W3C//DTD SVG 1.1//EN'  'http://www.w3.org/Graphics/SVG/1.1/DTD/svg11.dtd'>
<svg xmlns="http://www.w3.org/2000/svg" xml:space="preserve" viewBox="0 0 500 500" version="1.1" y="0px" x="0px" xmlns:xlink="http://www.w3.org/1999/xlink" enable-background="new 0 0 500 500">
<path d="m356.36 343.28c0-16.58 10.71-31.02 25.48-36.71-19.92-32.29-76.95-92.57-81.96-106.35-1.17-3.23-1.88-9.93-2.26-18.59-2.75 1.24-5.78 1.94-8.95 1.94-12.09 0-22.18-10.09-22.18-22.18s10.09-22.18 22.18-22.18c3.12 0 6.11 0.68 8.82 1.88 0.65-30.57 2.38-61.11 2.38-61.11h-65.05c0.55 1.91 0.85 3.91 0.85 5.97 0 12.09-10.09 22.18-22.18 22.18s-22.18-10.09-22.18-22.18c0-2.06 0.3-4.06 0.85-5.97h-11.16v121.17c-6 25.84 12.76 46.93 12.76 46.93s57.95 78.77 100.85 111.64c23.61 18.1 54.42 22.23 74.74 12.53-7.94-7.21-12.99-17.59-12.99-28.97zm-120.25-83.74c-12.09 0-22.18-10.09-22.18-22.18s10.09-22.18 22.18-22.18 22.18 10.09 22.18 22.18c0 12.09-10.09 22.18-22.18 22.18z" fill="#4A5963"/>
<path d="m312.05 391.5c7.57 0 12.21 4.54 13.94 10.1 7.05-9.99 9.5-24.02 4.66-42.11-4.6-25.13-89.14-112.15-95.51-129.68s0-128.81 0-128.81h-73.08c2.64 8.84-2.02 20.17-13.99 20.17s-16.63-11.33-13.99-20.17h-23.08v70.07c2.44-3.22 6.29-5.43 11.57-5.43 19.63 0 19.63 30.44 0 30.44-5.28 0-9.13-2.21-11.57-5.43v39.4c-0.55 3.08-0.83 6.1-0.9 9.03 4.52-1.85 9.44-2.89 14.57-2.89 21.42 0 39.29 17.87 39.29 39.29 0 14.3-7.97 27.01-19.65 33.89 21.78 27.99 56.24 69.47 85.14 91.62 22.37 17.15 50.75 22.76 72.16 16.84-8.14-8.33-4.67-26.33 10.44-26.33z" fill="#929F88"/>
</svg>
