<!DOCTYPE svg  PUBLIC '-//W3C//DTD SVG 1.1//EN'  'http://www.w3.org/Graphics/SVG/1.1/DTD/svg11.dtd'>
<svg xmlns="http://www.w3.org/2000/svg" xml:space="preserve" viewBox="0 0 500 500" version="1.1" y="0px" x="0px" xmlns:xlink="http://www.w3.org/1999/xlink" enable-background="new 0 0 500 500">
<path d="m311.21 387.65c-42.9-32.87-100.15-111.64-100.15-111.64s-18.06-21.08-12.06-46.93v-122.08h117.48s-5.91 104.42 0 120.68 84.33 97.58 88.6 120.89c15.68 58.54-50.98 71.95-93.87 39.08z" fill="#4A5963"/>
<path d="m229.59 426.34c-53.58-40.15-122.81-136.36-122.81-136.36s-8.38-8-12.78-57.32 0.97-171.82 0.97-171.82l141.54 6.34s-7.71 145.31-0.33 165.18 102.41 124.76 110.67 146.95c8.25 22.19-63.68 87.18-117.26 47.03z" fill="#929F88"/>
</svg>
